#!OML:ASF G:\JayActor3\Patient Classification 1\Patient 1\Session 5\male.ASF
:FULLY-SPECIFIED
:DEGREES
940
root 54.7564 16.5547 -4.83978 759.29 93.9707 761.866
lowerback 1.47213 -1.81803 1.78759
upperback 0.641936 -2.39454 0.195416
thorax -0.232083 -1.19314 -0.759935
lowerneck -6.3194 0.576266 1.17302
upperneck 9.88627 0.53289 1.7019
head 4.39208 0.418806 0.39705
rclavicle 1.31167e-014 -2.5842e-015
rhumerus -33.949 -12.2826 -82.7329
rradius 21.3048
rwrist 7.94355
rhand -20.2245 -8.13101
rfingers 7.12502
rthumb 6.12305 321.977
lclavicle 1.31167e-014 -2.5842e-015
lhumerus -29.1853 18.1463 80.4614
lradius 16.2755
lwrist 7.75241
lhand -18.7161 10.9721
lfingers 7.12502
lthumb 7.57914 40.8163
rfemur -16.8777 -1.15277 27.9921
rtibia 34.6996
rfoot -4.77096 -10.3881
rtoes -0.763811
lfemur 14.2973 8.43863 -13.0721
ltibia 38.0495
lfoot 27.9695 -0.459542
ltoes -14.0198
941
root 54.8855 16.5595 -4.82899 762.213 94.1977 764.93
lowerback 1.58921 -1.76359 2.10844
upperback 0.68827 -2.3136 0.279345
thorax -0.257169 -1.15165 -0.851744
lowerneck -6.33415 0.57756 1.16551
upperneck 9.96741 0.534339 1.7107
head 4.42449 0.421132 0.402156
rclavicle -3.92289e-014 1.19271e-015
rhumerus -33.7777 -11.8731 -82.9949
rradius 21.6151
rwrist 7.5629
rhand -20.2719 -8.1981
rfingers 7.12502
rthumb 6.07736 321.909
lclavicle -3.92289e-014 1.19271e-015
lhumerus -29.3885 18.2638 80.2993
lradius 16.2699
lwrist 7.6546
lhand -18.7507 10.9663
lfingers 7.12502
lthumb 7.54577 40.8117
rfemur -16.1658 -1.21036 28.4182
rtibia 34.5356
rfoot -4.99657 -10.4531
rtoes -0.90336
lfemur 12.8144 8.43506 -12.6256
ltibia 40.6183
lfoot 27.6201 -0.389234
ltoes -13.3665
942
root 55.0105 16.563 -4.81991 764.754 94.413 767.596
lowerback 1.69762 -1.70354 2.42489
upperback 0.738662 -2.22471 0.354015
thorax -0.272499 -1.10595 -0.951341
lowerneck -6.3572 0.576149 1.15994
upperneck 10.0366 0.531865 1.71793
head 4.45429 0.421323 0.406116
rclavicle -4.48197e-015 -1.39149e-015
rhumerus -33.5893 -11.4534 -83.2631
rradius 21.9474
rwrist 7.19441
rhand -20.3198 -8.25123
rfingers 7.12502
rthumb 6.03106 321.855
lclavicle -4.48197e-015 -1.39149e-015
lhumerus -29.5697 18.2862 80.1894
lradius 16.3427
lwrist 7.67507
lhand -18.8262 10.9292
lfingers 7.12502
lthumb 7.47291 40.7772
rfemur -15.5054 -1.28509 28.8016
rtibia 34.4072
rfoot -5.17086 -10.4355
rtoes -1.20248
lfemur 11.346 8.41998 -12.2328
ltibia 43.0191
lfoot 26.6023 -0.348722
ltoes -13.3462
943
root 55.1321 16.5657 -4.8132 766.82 94.6126 769.78
lowerback 1.8027 -1.64112 2.73589
upperback 0.794021 -2.13227 0.414082
thorax -0.280325 -1.05822 -1.06333
lowerneck -6.36784 0.575715 1.15647
upperneck 10.0791 0.531447 1.7192
head 4.47192 0.421849 0.407539
rclavicle -1.66637e-014 5.96354e-015
rhumerus -33.3888 -11.032 -83.5319
rradius 22.2955
rwrist 6.84181
rhand -20.3702 -8.27949
rfingers 7.12502
rthumb 5.98246 321.825
lclavicle -1.66637e-014 5.96354e-015
lhumerus -29.7364 18.2002 80.1355
lradius 16.4994
lwrist 7.82625
lhand -18.8937 10.942
lfingers 7.12502
lthumb 7.40776 40.7923
rfemur -14.8793 -1.38793 29.1281
rtibia 34.3074
rfoot -5.29562 -10.3445
rtoes -1.67769
lfemur 9.90154 8.38119 -11.9094
ltibia 45.2399
lfoot 25.0051 -0.332901
ltoes -13.8034
944
root 55.2506 16.5679 -4.80835 768.649 94.8 771.719
lowerback 1.90137 -1.57361 3.05004
upperback 0.854077 -2.03268 0.463811
thorax -0.279096 -1.0066 -1.18834
lowerneck -6.37119 0.57212 1.15219
upperneck 10.0982 0.527198 1.71907
head 4.47956 0.419985 0.408183
rclavicle 3.79586e-014 -1.45113e-014
rhumerus -33.1786 -10.6126 -83.7997
rradius 22.6609
rwrist 6.49361
rhand -20.4081 -8.31095
rfingers 7.12502
rthumb 5.94579 321.792
lclavicle 3.79586e-014 -1.45113e-014
lhumerus -29.8885 18.015 80.1337
lradius 16.732
lwrist 8.10026
lhand -18.9364 11.0314
lfingers 7.12502
lthumb 7.36653 40.8832
rfemur -14.2827 -1.50261 29.4195
rtibia 34.2231
rfoot -5.38961 -10.2111
rtoes -2.30761
lfemur 8.47442 8.32309 -11.6364
ltibia 47.2773
lfoot 22.9845 -0.337585
ltoes -14.5661
